<?xml version="1.0" standalone="no"?>
<!DOCTYPE svg PUBLIC "-//W3C//DTD SVG 20010904//EN"
 "http://www.w3.org/TR/2001/REC-SVG-20010904/DTD/svg10.dtd">
<svg version="1.0" xmlns="http://www.w3.org/2000/svg"
 width="300.000000pt" height="300.000000pt" viewBox="0 0 300.000000 300.000000"
 preserveAspectRatio="xMidYMid meet">
<metadata>
Created by potrace 1.11, written by Peter Selinger 2001-2013
</metadata>
<g transform="translate(0.000000,300.000000) scale(0.100000,-0.100000)"
fill="#000000" stroke="none">
<path d="M1515 2958 c-22 -12 -60 -38 -85 -58 -25 -20 -63 -42 -85 -48 -62
-18 -132 -69 -177 -129 -22 -30 -38 -57 -35 -59 2 -3 31 8 63 25 62 31 117 47
199 55 47 5 41 1 -105 -70 -85 -42 -195 -89 -245 -106 -85 -29 -98 -31 -232
-30 -79 1 -143 -2 -143 -6 0 -12 223 -52 292 -52 93 0 146 23 321 141 82 54
153 99 158 99 5 0 9 7 9 15 0 9 9 15 23 15 19 0 14 -8 -33 -53 -30 -29 -66
-61 -79 -70 -14 -9 -21 -20 -17 -24 4 -5 65 -8 134 -8 122 0 129 1 177 29 27
16 70 49 96 73 25 24 55 43 65 43 45 0 272 -73 345 -111 84 -44 181 -133 241
-220 18 -27 39 -49 46 -49 22 0 207 43 215 50 12 11 -122 177 -214 265 -97 92
-165 139 -281 195 -194 93 -552 141 -653 88z m145 -73 l-24 -25 -23 22 c-19
18 -27 20 -47 10 -15 -7 -26 -21 -29 -39 l-4 -28 -2 31 c-2 44 15 54 88 54
l64 0 -23 -25z"/>
<path d="M2765 2379 c-373 -100 -580 -136 -817 -145 -76 -2 -138 -7 -138 -10
-1 -3 25 -19 57 -34 99 -49 125 -82 138 -177 8 -61 -15 -61 194 -3 127 36 137
41 168 79 46 55 148 121 295 190 103 49 248 110 321 134 16 6 25 28 10 26 -5
-1 -107 -28 -228 -60z"/>
<path d="M2588 2184 c-60 -30 -108 -59 -108 -64 0 -22 -46 -73 -87 -97 -23
-13 -100 -42 -171 -63 -377 -114 -564 -259 -602 -468 -12 -71 -1 -182 19 -182
14 0 141 160 141 178 0 33 52 102 111 146 83 63 175 105 358 165 160 53 216
80 290 140 67 54 107 100 136 158 26 54 44 143 29 142 -5 0 -57 -25 -116 -55z"/>
<path d="M1500 2204 c-30 -7 -118 -23 -195 -36 -124 -20 -178 -22 -475 -23
-340 0 -407 4 -689 46 -122 19 -173 20 -125 3 246 -87 367 -170 517 -357 187
-232 413 -633 669 -1187 92 -199 268 -606 268 -620 0 -17 18 -11 24 8 2 9 12
55 21 102 95 496 373 1156 636 1511 33 45 58 83 56 85 -8 8 -172 -71 -232
-112 -104 -68 -192 -169 -286 -327 l-46 -78 -75 118 c-193 305 -268 467 -270
580 -1 77 23 104 232 264 19 15 33 29 30 32 -3 2 -30 -2 -60 -9z"/>
<path d="M1862 1073 c-36 -84 -40 -99 -28 -112 25 -28 93 -173 115 -246 32
-102 61 -282 68 -423 9 -173 20 -172 43 3 30 224 22 431 -21 595 -20 76 -99
250 -123 269 -10 8 -22 -11 -54 -86z"/>
</g>
</svg>
